<?xml version="1.0" encoding="utf-8"?>
<!-- Generator: Adobe Illustrator 15.0.0, SVG Export Plug-In . SVG Version: 6.00 Build 0)  -->
<!DOCTYPE svg PUBLIC "-//W3C//DTD SVG 1.1//EN" "http://www.w3.org/Graphics/SVG/1.1/DTD/svg11.dtd">
<svg version="1.1" id="Layer_1" xmlns="http://www.w3.org/2000/svg" xmlns:xlink="http://www.w3.org/1999/xlink" x="0px" y="0px"
	 width="64px" height="64px" viewBox="0 0 64 64" enable-background="new 0 0 64 64" xml:space="preserve">
<g>
	<g>
		<path d="M55.93,33.39c-1.805-10.495-10.462-18.706-21.001-20.017c1.708-2.842,1.979-6.332,0.577-8.675
			c-0.576-0.964-1.971-2.584-4.828-2.584c-0.872,0-1.832,0.155-2.853,0.46c-2.805,0.844-3.891,3.329-3.51,5.349
			c0.302,1.588,1.676,3.445,4.558,3.445c0.188,0,0.38-0.007,0.498-0.022c2.766,0,4.09-1.789,4.174-3.56
			c0.036-0.688-0.119-1.479-0.493-2.222c0.112,0.127,0.215,0.267,0.306,0.42c1.082,1.81,0.432,5.103-1.382,7.2h-0.041
			c-11.811,0-22.038,8.677-24,20.266c-2.647,0.559-4.583,2.905-4.583,5.664c0,3.021,2.327,5.511,5.368,5.771
			c3.177,10.037,12.65,17.001,23.214,17.001c10.563,0,20.031-6.955,23.215-16.979c3.143-0.063,5.681-2.636,5.681-5.792
			C60.829,36.236,58.719,33.823,55.93,33.39z M55.034,42.401c-0.184,0-0.371-0.018-0.583-0.056l-1.14-0.202l-0.287,1.109
			c-2.571,9.496-11.244,16.129-21.091,16.129c-9.822,0-18.484-6.615-21.069-16.088l-0.282-1.033L9.509,42.38
			c-0.13,0.015-0.25,0.021-0.362,0.021c-1.815,0-3.289-1.476-3.289-3.287c0-1.795,1.408-3.237,3.202-3.284l1.075-0.021l0.143-1.071
			c1.387-10.86,10.698-19.049,21.656-19.049c10.968,0,20.28,8.192,21.664,19.059l0.149,1.137l1.287-0.058
			c1.814,0,3.29,1.475,3.29,3.287C58.324,40.926,56.849,42.401,55.034,42.401z M28.853,5.416c1.434,0.143,2.241,1.252,2.192,2.241
			c-0.04,0.784-0.619,1.184-1.783,1.188c-2.006,0.193-2.397-0.934-2.482-1.39c-0.149-0.787,0.237-1.746,1.232-2.266l-0.014,0.138
			L28.853,5.416z"/>
	</g>
	<g>
		<path d="M32.091,37.761c-7.272,0-13.188,4.232-13.188,9.436c0,0.936,0.19,1.61,0.584,2.065c0.39,0.448,0.941,0.67,1.692,0.67
			c0.977,0,2.229-0.377,3.691-0.818c2.026-0.605,4.545-1.362,7.22-1.362c2.672,0,5.196,0.757,7.227,1.367
			c1.455,0.437,2.709,0.813,3.684,0.813c1.511,0,2.277-0.922,2.277-2.735C45.279,41.993,39.36,37.761,32.091,37.761z"/>
	</g>
	<g>
		<path d="M19.441,30.628c0.037-0.033,3.739-3.513,6.925-3.513c0.507,0,0.983,0.09,1.406,0.268l0.144,0.063l0.433-1.021
			l-0.147-0.063c-0.561-0.235-1.181-0.355-1.836-0.355c-3.629,0-7.522,3.668-7.686,3.823l-0.114,0.112l0.761,0.796L19.441,30.628z"
			/>
	</g>
	<g>
		<path d="M38.232,26.009c-0.654,0-1.274,0.118-1.835,0.353l-0.147,0.063l0.432,1.021l0.146-0.063
			c0.423-0.178,0.894-0.268,1.403-0.268c3.187,0,6.889,3.48,6.925,3.513l0.114,0.109l0.765-0.796l-0.115-0.112
			C45.756,29.674,41.886,26.009,38.232,26.009z"/>
	</g>
	<g>
		<path d="M7.871,29.213l0.502-0.024l0.026-0.503c0.022-0.5,0.088-3.031-0.826-3.946c-0.486-0.484-1.134-0.754-1.824-0.754
			c-0.691,0-1.341,0.27-1.827,0.754c-1.002,1.005-1.002,2.644,0.004,3.65c0.724,0.725,2.479,0.832,3.458,0.832
			C7.629,29.222,7.805,29.216,7.871,29.213z M5.749,25.091c0.394,0,0.765,0.155,1.044,0.43c0.343,0.347,0.5,1.557,0.51,2.6
			c-1.062-0.01-2.251-0.171-2.596-0.515c-0.578-0.573-0.578-1.511,0-2.085C4.982,25.246,5.353,25.091,5.749,25.091z"/>
	</g>
	<g>
		<path d="M55.228,25.559l0.498,0.023c0.065,0.002,0.247,0.009,0.496,0.009c0.977,0,2.728-0.108,3.453-0.833
			c1.006-1.007,1.006-2.644,0.003-3.649c-0.489-0.486-1.138-0.754-1.827-0.754c-0.69,0-1.337,0.268-1.826,0.754
			c-0.914,0.915-0.846,3.446-0.822,3.944L55.228,25.559z M56.297,24.487c0.006-1.039,0.168-2.252,0.511-2.597
			c0.28-0.278,0.649-0.429,1.043-0.429s0.765,0.151,1.044,0.429c0.573,0.578,0.573,1.512,0,2.086
			C58.55,24.319,57.356,24.479,56.297,24.487z"/>
	</g>
</g>
</svg>
