<?xml version="1.0" encoding="iso-8859-1"?>
<!-- Generator: Adobe Illustrator 18.0.0, SVG Export Plug-In . SVG Version: 6.00 Build 0)  -->
<!DOCTYPE svg PUBLIC "-//W3C//DTD SVG 1.1//EN" "http://www.w3.org/Graphics/SVG/1.1/DTD/svg11.dtd">
<svg version="1.1" id="Capa_1" xmlns="http://www.w3.org/2000/svg" xmlns:xlink="http://www.w3.org/1999/xlink" x="0px" y="0px"
	 viewBox="0 0 32 32" style="enable-background:new 0 0 32 32;" xml:space="preserve">
<g id="_x32__3_">
	<g>
		<path style="fill-rule:evenodd;clip-rule:evenodd;" d="M22,15H10c-0.552,0-1,0.448-1,1c0,0.552,0.448,1,1,1h12
			c0.552,0,1-0.448,1-1C23,15.448,22.552,15,22,15z M28,0H4C1.791,0,0,1.791,0,4v24c0,2.209,1.791,4,4,4h24c2.209,0,4-1.791,4-4V4
			C32,1.791,30.209,0,28,0z M30,28c0,1.105-0.895,2-2,2H4c-1.105,0-2-0.895-2-2V4c0-1.105,0.895-2,2-2h24c1.105,0,2,0.896,2,2V28z"
			/>
	</g>
</g>
<g>
</g>
<g>
</g>
<g>
</g>
<g>
</g>
<g>
</g>
<g>
</g>
<g>
</g>
<g>
</g>
<g>
</g>
<g>
</g>
<g>
</g>
<g>
</g>
<g>
</g>
<g>
</g>
<g>
</g>
</svg>
