<?xml version="1.0" encoding="iso-8859-1"?>
<!-- Generator: Adobe Illustrator 16.0.4, SVG Export Plug-In . SVG Version: 6.00 Build 0)  -->
<!DOCTYPE svg PUBLIC "-//W3C//DTD SVG 1.1//EN" "http://www.w3.org/Graphics/SVG/1.1/DTD/svg11.dtd">
<svg version="1.1" id="Capa_1" xmlns="http://www.w3.org/2000/svg" xmlns:xlink="http://www.w3.org/1999/xlink" x="0px" y="0px"
	 width="44.237px" height="44.237px" viewBox="0 0 44.237 44.237" style="enable-background:new 0 0 44.237 44.237;"
	 xml:space="preserve">
<g>
	<path d="M22.119,44.237C9.922,44.237,0,34.315,0,22.119S9.922,0,22.119,0c12.196,0,22.118,9.923,22.118,22.119
		S34.315,44.237,22.119,44.237z M22.119,1.5C10.75,1.5,1.5,10.75,1.5,22.119s9.25,20.618,20.619,20.618
		c11.369,0,20.618-9.249,20.618-20.618S33.488,1.5,22.119,1.5z"/>
	<path d="M16.257,31.038c-1.049,0-1.643-0.25-1.815-0.766c-0.117-0.347,0.007-0.721,0.315-0.953c0.853-0.643,1.316-1.307,1.38-1.979
		c-1.93-1.224-3.16-3.059-3.398-5.091c-0.205-1.746,0.339-3.535,1.531-5.035c1.579-1.987,4.114-3.31,6.956-3.627
		c0.433-0.049,0.871-0.073,1.302-0.073c4.666,0,8.518,2.851,8.961,6.631c0.239,2.041-0.311,4.022-1.547,5.579
		c-1.357,1.709-3.482,2.804-5.981,3.083c-0.43,0.048-0.866,0.072-1.295,0.072c0,0,0,0,0,0c-0.339,0-0.68-0.015-1.016-0.045
		C19.49,30.874,16.994,31.038,16.257,31.038z M22.527,15.015c-0.375,0-0.758,0.021-1.136,0.063c-2.447,0.274-4.615,1.393-5.948,3.07
		c-0.956,1.202-1.375,2.561-1.215,3.928c0.197,1.68,1.298,3.205,3.021,4.184c0.21,0.119,0.35,0.332,0.375,0.571
		c0.076,0.701-0.053,1.667-0.897,2.685c1.235-0.114,2.842-0.679,4.106-1.985c0.163-0.17,0.397-0.252,0.63-0.223
		c0.394,0.048,0.797,0.072,1.199,0.072c0,0,0,0,0,0c0.374,0,0.753-0.021,1.128-0.062c2.13-0.238,3.85-1.112,4.973-2.526
		c0.986-1.241,1.424-2.829,1.231-4.472C29.643,17.296,26.432,15.015,22.527,15.015z"/>
</g>
<g>
</g>
<g>
</g>
<g>
</g>
<g>
</g>
<g>
</g>
<g>
</g>
<g>
</g>
<g>
</g>
<g>
</g>
<g>
</g>
<g>
</g>
<g>
</g>
<g>
</g>
<g>
</g>
<g>
</g>
</svg>
